<svg width="850" height="1134" viewBox="0 0 850 1134" fill="none" xmlns="http://www.w3.org/2000/svg">
<path d="M579.5 794.5C717 811.5 521 576.5 484.5 545.5C455.249 520.656 688.675 163.774 782.545 23C788.024 14.7846 793.026 7.30525 797.474 0.670837H543.5C320.51 30.6656 39.3255 75.1337 9 112C-42 174 147 811.5 173 848C199 884.5 207.5 1123.5 254 1132C300.5 1140.5 867 1110.5 908.5 1095C950 1079.5 1025 989.5 963 970C901 950.5 785 941.5 785 941.5C785 941.5 630.5 1021 659.5 985C688.5 949 442 777.5 579.5 794.5Z" fill="#C4C4C4" fill-opacity="0.3"/>
</svg>
